<?xml version="1.0" encoding="utf-8"?>
<!-- Generator: Adobe Illustrator 27.2.0, SVG Export Plug-In . SVG Version: 6.00 Build 0)  -->
<svg version="1.1" id="Camada_1" xmlns="http://www.w3.org/2000/svg" xmlns:xlink="http://www.w3.org/1999/xlink" x="0px" y="0px"
	 viewBox="0 0 27 48" style="enable-background:new 0 0 27 48;" xml:space="preserve">
<style type="text/css">
	.st0{fill:#404040;}
</style>
<path class="st0" d="M0.9,47C0.3,46.3,0,45.5,0,44.7c0-0.8,0.3-1.6,0.9-2.2l18.4-18.4L0.8,5.6C0.2,5,0,4.3,0,3.3s0.3-1.7,0.9-2.2
	c0.7-0.7,1.4-1,2.2-1s1.5,0.4,2.1,1l20.8,20.8c0.3,0.3,0.6,0.7,0.7,1c0.1,0.3,0.2,0.7,0.2,1.2c0,0.4-0.1,0.8-0.2,1.2
	c-0.1,0.3-0.4,0.7-0.7,1L5.4,47c-0.6,0.6-1.4,0.9-2.2,0.9S1.6,47.6,0.9,47z"/>
</svg>
