<?xml version="1.0" encoding="utf-8"?>
<!-- Generator: Adobe Illustrator 27.2.0, SVG Export Plug-In . SVG Version: 6.00 Build 0)  -->
<svg version="1.1" id="Camada_1" xmlns="http://www.w3.org/2000/svg" xmlns:xlink="http://www.w3.org/1999/xlink" x="0px" y="0px"
	 viewBox="0 0 48 48" style="enable-background:new 0 0 48 48;" xml:space="preserve">
<style type="text/css">
	.st0{fill:#FFFFFF;}
</style>
<path class="st0" d="M24,44c-2.8,0-5.3-0.5-7.8-1.6c-2.4-1-4.5-2.5-6.4-4.3s-3.2-3.9-4.3-6.4C4.5,29.3,4,26.7,4,24s0.5-5.4,1.6-7.8
	c1-2.4,2.5-4.5,4.3-6.3s3.9-3.2,6.4-4.3c2.4-1,5-1.6,7.8-1.6s5.4,0.5,7.8,1.6c2.4,1.1,4.5,2.5,6.3,4.3s3.2,3.9,4.3,6.4
	c1.1,2.4,1.6,5,1.6,7.8s-0.5,5.3-1.6,7.8c-1,2.4-2.5,4.5-4.3,6.4c-1.8,1.8-3.9,3.2-6.4,4.3C29.4,43.5,26.8,44,24,44z M24,41
	c4.7,0,8.7-1.7,12-5c3.3-3.3,5-7.3,5-12.1s-1.6-8.7-4.9-12C32.8,8.6,28.7,7,24,7c-4.7,0-8.7,1.6-12,4.9C8.7,15.2,7,19.3,7,24
	c0,4.7,1.7,8.7,5,12S19.3,41,24,41z M24,37c0.6,0,1.3,0,1.9-0.1c0.6-0.1,1.2-0.2,1.8-0.4c0.1,0,0.3-0.3,0.6-0.8c0-0.2,0-0.3-0.1-0.5
	c-0.1-0.2-0.2-0.3-0.4-0.4c-1.7-1.2-3.1-2.7-4.2-4.6c-1.1-1.9-1.6-4-1.6-6.2c0-2.3,0.5-4.4,1.6-6.2c1-1.9,2.4-3.4,4.2-4.6
	c0.2-0.1,0.3-0.3,0.4-0.4c0.1-0.2,0.1-0.3,0.1-0.5c0-0.2-0.1-0.3-0.2-0.4c-0.1-0.1-0.3-0.2-0.4-0.3c-0.6-0.2-1.2-0.3-1.8-0.4
	S24.6,11,24,11c-3.6,0-6.7,1.3-9.2,3.8C12.3,17.3,11,20.4,11,24c0,3.6,1.3,6.7,3.8,9.2C17.3,35.7,20.4,37,24,37z"/>
</svg>
