<?xml version="1.0" encoding="utf-8"?>
<!-- Generator: Adobe Illustrator 27.2.0, SVG Export Plug-In . SVG Version: 6.00 Build 0)  -->
<svg version="1.1" id="Camada_2_00000054243990891655654100000012205282521044354490_"
	 xmlns="http://www.w3.org/2000/svg" xmlns:xlink="http://www.w3.org/1999/xlink" x="0px" y="0px" viewBox="0 0 45 45"
	 style="enable-background:new 0 0 45 45;" xml:space="preserve">
<style type="text/css">
	.st0{fill:none;}
	.st1{fill:#FFFFFF;}
</style>
<g id="Graphic_Elements">
	<g>
		<path class="st0" d="M45,22.5C45,10.1,34.9,0,22.5,0S0,10.1,0,22.5C0,33.7,8.2,43,19,44.7V29h-5.7v-6.5H19v-5
			c0-5.6,3.4-8.8,8.5-8.8c2.5,0,5,0.4,5,0.4v5.5h-2.8c-2.8,0-3.7,1.7-3.7,3.5v4.2h6.2l-1,6.5H26v15.7C36.8,43,45,33.7,45,22.5z"/>
		<path class="st1" d="M31.3,29l1-6.5H26v-4.2c0-1.8,0.9-3.5,3.7-3.5h2.8V9.2c0,0-2.6-0.4-5-0.4c-5.1,0-8.5,3.1-8.5,8.8v5h-5.7V29
			H19v15.7c1.1,0.2,2.3,0.3,3.5,0.3s2.4-0.1,3.5-0.3V29C26,29,31.3,29,31.3,29z"/>
	</g>
</g>
</svg>
