<?xml version="1.0" encoding="utf-8"?>
<!-- Generator: Adobe Illustrator 27.2.0, SVG Export Plug-In . SVG Version: 6.00 Build 0)  -->
<svg version="1.1" id="Camada_1" xmlns="http://www.w3.org/2000/svg" xmlns:xlink="http://www.w3.org/1999/xlink" x="0px" y="0px"
	 viewBox="0 0 96 96" style="enable-background:new 0 0 96 96;" xml:space="preserve">
<style type="text/css">
	.st0{fill:none;}
	.st1{fill:#FFFFFF;}
</style>
<g>
	<path class="st0" d="M48.1,0C21.6,0,0.3,21.5,0.3,48.1C0.3,69.4,14,87.3,33,93.7c2.3,0.5,3.2-1.1,3.2-2.3c0-1.1-0.1-5-0.1-8.9
		c-13.3,2.8-16-5.8-16-5.8c-2.1-5.6-5.3-7-5.3-7c-4.3-2.9,0.3-2.9,0.3-2.9c4.8,0.3,7.3,5,7.3,5c4.3,7.3,11.1,5.3,13.9,4
		c0.4-3.1,1.7-5.3,3-6.4C28.8,68.2,17.6,64,17.6,45.5c0-5.3,1.9-9.6,4.9-12.9c-0.5-1.2-2.1-6.2,0.5-12.7c0,0,4-1.3,13.1,5
		C40,23.8,44,23.4,48,23.4s8.1,0.6,11.9,1.6c9.1-6.3,13.1-5,13.1-5c2.6,6.6,1,11.5,0.5,12.7c3.1,3.3,4.9,7.6,4.9,12.9
		c0,18.5-11.1,22.6-21.8,23.7c1.8,1.5,3.2,4.4,3.2,8.9c0,6.4-0.1,11.6-0.1,13.2c0,1.3,0.9,2.8,3.2,2.3C82,87.3,95.7,69.4,95.7,48.1
		C95.8,21.5,74.4,0,48.1,0z"/>
	<path class="st1" d="M73.1,19.9c0,0-4-1.3-13.1,5c-3.8-1.1-7.9-1.6-11.9-1.6s-8,0.6-11.9,1.6c-9.1-6.3-13.1-5-13.1-5
		c-2.6,6.6-1,11.5-0.5,12.7c-3,3.3-4.9,7.6-4.9,12.9c0,18.5,11.1,22.6,21.7,23.7c-1.4,1.2-2.6,3.3-3,6.4c-2.7,1.3-9.7,3.3-13.9-4
		c0,0-2.5-4.6-7.3-5c0,0-4.7,0-0.3,2.9c0,0,3.1,1.5,5.3,7c0,0,2.7,8.6,16,5.8c0,4,0.1,7.8,0.1,8.9c0,1.1-0.7,2.4-2.4,2.4l0,0.1
		C38.3,95.3,43,96,47.9,96c5,0,9.8-0.8,14.4-2.2l0,0c-1.8,0-2.4-1.3-2.4-2.4c0-1.6,0.1-6.7,0.1-13.2c0-4.5-1.5-7.4-3.2-8.9
		c10.6-1.2,21.8-5.3,21.8-23.7c0-5.3-1.9-9.6-4.9-12.9C74.1,31.5,75.7,26.5,73.1,19.9z"/>
</g>
</svg>
