<?xml version="1.0" encoding="utf-8"?>
<!-- Generator: Adobe Illustrator 27.2.0, SVG Export Plug-In . SVG Version: 6.00 Build 0)  -->
<svg version="1.1" id="Camada_1" xmlns="http://www.w3.org/2000/svg" xmlns:xlink="http://www.w3.org/1999/xlink" x="0px" y="0px"
	 viewBox="0 0 48 48" style="enable-background:new 0 0 48 48;" xml:space="preserve">
<style type="text/css">
	.st0{fill:none;}
	.st1{fill:#FFFFFF;}
</style>
<circle class="st0" cx="24" cy="24" r="24"/>
<path class="st1" d="M11.2,35.8h7.4V23.3h10.9v12.3h7.4V16.4L24,6.8l-12.8,9.7V35.8z M11.2,38.7c-0.8,0-1.5-0.3-2.1-0.9
	c-0.6-0.6-0.9-1.3-0.9-2.1V16.4c0-0.5,0.1-0.9,0.3-1.4c0.2-0.4,0.5-0.8,0.9-1l12.8-9.7c0.3-0.2,0.6-0.3,0.9-0.4
	c0.3-0.1,0.6-0.2,0.9-0.2s0.6,0.1,0.9,0.2c0.3,0.1,0.6,0.2,0.9,0.4L38.6,14c0.4,0.3,0.7,0.6,0.9,1c0.2,0.4,0.3,0.9,0.3,1.4v19.2
	c0,0.8-0.3,1.5-0.9,2.1c-0.6,0.6-1.3,0.9-2.1,0.9H26.5V26.3h-4.9v12.3L11.2,38.7L11.2,38.7z"/>
</svg>
