<?xml version="1.0" encoding="utf-8"?>
<!-- Generator: Adobe Illustrator 27.2.0, SVG Export Plug-In . SVG Version: 6.00 Build 0)  -->
<svg version="1.1" id="Camada_2_00000012464104701306192750000000282987456829178777_"
	 xmlns="http://www.w3.org/2000/svg" xmlns:xlink="http://www.w3.org/1999/xlink" x="0px" y="0px" viewBox="0 0 135 135"
	 style="enable-background:new 0 0 135 135;" xml:space="preserve">
<style type="text/css">
	.st0{fill:none;}
	.st1{fill:#FFFFFF;}
</style>
<g id="Graphic_Elements">
	<g>
		<circle class="st0" cx="67.5" cy="67.5" r="67.5"/>
		<g>
			<path class="st1" d="M67.5,32.7c11.3,0,12.7,0,17.2,0.2c4.1,0.2,6.4,0.9,7.9,1.5c2,0.8,3.4,1.7,4.9,3.2s2.4,2.9,3.2,4.9
				c0.6,1.5,1.3,3.8,1.5,7.9c0.2,4.5,0.2,5.8,0.2,17.2s0,12.7-0.2,17.2c-0.2,4.1-0.9,6.4-1.5,7.9c-0.8,2-1.7,3.4-3.2,4.9
				s-2.9,2.4-4.9,3.2c-1.5,0.6-3.8,1.3-7.9,1.5c-4.5,0.2-5.8,0.2-17.2,0.2s-12.7,0-17.2-0.2c-4.1-0.2-6.4-0.9-7.9-1.5
				c-2-0.8-3.4-1.7-4.9-3.2c-1.5-1.5-2.4-2.9-3.2-4.9c-0.6-1.5-1.3-3.8-1.5-7.9c-0.2-4.5-0.2-5.8-0.2-17.2s0-12.7,0.2-17.2
				c0.2-4.1,0.9-6.4,1.5-7.9c0.8-2,1.7-3.4,3.2-4.9c1.5-1.5,2.9-2.4,4.9-3.2c1.5-0.6,3.8-1.3,7.9-1.5C54.8,32.7,56.2,32.7,67.5,32.7
				 M67.5,25c-11.5,0-13,0-17.5,0.3c-4.5,0.2-7.6,0.9-10.3,2c-2.8,1.1-5.2,2.5-7.5,4.9c-2.4,2.4-3.8,4.7-4.9,7.5
				c-1,2.7-1.8,5.8-2,10.3S25,56,25,67.5s0,13,0.3,17.5c0.2,4.5,0.9,7.6,2,10.3c1.1,2.8,2.5,5.2,4.9,7.5c2.4,2.4,4.7,3.8,7.5,4.9
				c2.7,1.1,5.8,1.8,10.3,2c4.5,0.2,6,0.3,17.5,0.3s13-0.1,17.5-0.3c4.5-0.2,7.6-0.9,10.3-2c2.8-1.1,5.2-2.5,7.5-4.9
				c2.4-2.4,3.8-4.7,4.9-7.5c1.1-2.7,1.8-5.8,2-10.3c0.2-4.5,0.3-6,0.3-17.5s-0.1-13-0.3-17.5c-0.2-4.5-0.9-7.6-2-10.3
				c-1.1-2.8-2.5-5.2-4.9-7.5c-2.4-2.4-4.7-3.8-7.5-4.9c-2.7-1-5.8-1.8-10.3-2S79,25,67.5,25C67.5,25,67.5,25,67.5,25z"/>
			<path class="st1" d="M67.5,45.7c-12,0-21.8,9.8-21.8,21.8s9.8,21.8,21.8,21.8s21.8-9.8,21.8-21.8S79.6,45.7,67.5,45.7z
				 M67.5,81.7c-7.8,0-14.2-6.3-14.2-14.2s6.3-14.2,14.2-14.2s14.2,6.3,14.2,14.2S75.3,81.7,67.5,81.7z"/>
			<circle class="st1" cx="90.2" cy="44.8" r="5.1"/>
		</g>
	</g>
</g>
</svg>
