<?xml version="1.0" encoding="utf-8"?>
<!-- Generator: Adobe Illustrator 27.2.0, SVG Export Plug-In . SVG Version: 6.00 Build 0)  -->
<svg version="1.1" id="Camada_1" xmlns="http://www.w3.org/2000/svg" xmlns:xlink="http://www.w3.org/1999/xlink" x="0px" y="0px"
	 viewBox="0 0 48 48" style="enable-background:new 0 0 48 48;" xml:space="preserve">
<style type="text/css">
	.st0{fill:#FFFFFF;}
</style>
<path class="st0" d="M34.5,19.5l-6-6.1l2.7-2.7c0.5-0.5,1-0.6,1.6-0.6s1.2,0.2,1.6,0.6l2.7,2.8c0.5,0.5,0.7,1,0.7,1.6
	c0,0.6-0.2,1.2-0.7,1.6L34.5,19.5z M9.9,38.1V32l7.6-7.6l-8.6-8.7l6.8-6.9l8.7,8.7l4.1-4.1l6,6.1l-4.1,4.1l8.7,8.7l-6.9,6.7
	l-8.7-8.6L16,38.1H9.9z M19.2,22.8l3.5-3.5l-2.8-2.9L18,18.3l-1.6-1.6l1.9-1.9l-2.5-2.5l-3.5,3.5L19.2,22.8z M32.2,35.8l3.5-3.5
	l-2.5-2.5l-1.9,1.9l-1.6-1.6l1.9-1.9l-2.8-2.9l-3.5,3.5L32.2,35.8z M12.2,35.8H15l16.2-16.2l-2.7-2.7L12.2,33V35.8z"/>
</svg>
